<?xml version="1.0" encoding="utf-8"?>
<!-- Generator: Adobe Illustrator 24.2.0, SVG Export Plug-In . SVG Version: 6.00 Build 0)  -->
<svg version="1.1" id="Layer_1" xmlns="http://www.w3.org/2000/svg" xmlns:xlink="http://www.w3.org/1999/xlink" x="0px" y="0px"
	 viewBox="0 0 139.71 24.03" style="enable-background:new 0 0 139.71 24.03;" xml:space="preserve">
<style type="text/css">
	.st0{clip-path:url(#SVGID_2_);fill:#FFFFFF;}
</style>
<g>
	<defs>
		<rect id="SVGID_1_" y="0" width="139.71" height="24.03"/>
	</defs>
	<clipPath id="SVGID_2_">
		<use xlink:href="#SVGID_1_"  style="overflow:visible;"/>
	</clipPath>
	<path class="st0" d="M18.25,10.67c-1.25,0-2.51-0.48-3.46-1.43c-1.91-1.91-1.91-5.02,0-6.93L16.7,0.4c0.53-0.53,1.39-0.53,1.93,0
		c0.53,0.53,0.53,1.39,0,1.93l-1.91,1.91c-0.85,0.85-0.85,2.23,0,3.08c0.85,0.85,2.23,0.85,3.07,0L21.7,5.4
		c0.53-0.53,1.39-0.53,1.93,0c0.53,0.53,0.53,1.39,0,1.93l-1.91,1.91C20.76,10.19,19.51,10.67,18.25,10.67"/>
	<path class="st0" d="M6.36,24.03c-0.35,0-0.7-0.13-0.96-0.4c-0.53-0.53-0.53-1.39,0-1.92l1.91-1.91c0.85-0.85,0.85-2.23,0-3.08
		s-2.23-0.85-3.07,0l-1.91,1.91c-0.53,0.53-1.39,0.53-1.92,0c-0.53-0.53-0.53-1.39,0-1.92l1.91-1.91c1.91-1.91,5.02-1.91,6.92,0
		s1.91,5.02,0,6.93l-1.91,1.91C7.06,23.89,6.71,24.03,6.36,24.03"/>
	<path class="st0" d="M5.77,10.67c-1.25,0-2.51-0.48-3.46-1.43L0.4,7.32c-0.53-0.53-0.53-1.39,0-1.93c0.53-0.53,1.39-0.53,1.92,0
		l1.91,1.91c0.85,0.85,2.23,0.85,3.07,0c0.85-0.85,0.85-2.23,0-3.08L5.4,2.32c-0.53-0.53-0.53-1.39,0-1.93
		c0.53-0.53,1.39-0.53,1.93,0l1.91,1.91c1.91,1.91,1.91,5.02,0,6.93C8.28,10.19,7.03,10.67,5.77,10.67"/>
	<path class="st0" d="M17.67,24.03c-0.35,0-0.7-0.13-0.96-0.4l-1.91-1.91c-1.91-1.91-1.91-5.02,0-6.93s5.02-1.91,6.93,0l1.91,1.91
		c0.53,0.53,0.53,1.39,0,1.92c-0.53,0.53-1.39,0.53-1.93,0l-1.91-1.91c-0.85-0.85-2.23-0.85-3.07,0c-0.85,0.85-0.85,2.23,0,3.08
		l1.91,1.91c0.53,0.53,0.53,1.39,0,1.92C18.36,23.89,18.01,24.03,17.67,24.03"/>
	<path class="st0" d="M136.1,21.91c0-0.32,0.08-0.62,0.24-0.9c0.16-0.28,0.38-0.5,0.66-0.66c0.28-0.16,0.58-0.24,0.9-0.24
		c0.32,0,0.62,0.08,0.9,0.24c0.28,0.16,0.5,0.38,0.66,0.66c0.16,0.28,0.24,0.58,0.24,0.91c0,0.31-0.08,0.61-0.23,0.89
		c-0.15,0.28-0.37,0.5-0.65,0.67c-0.28,0.17-0.59,0.25-0.92,0.25c-0.33,0-0.64-0.08-0.92-0.25c-0.28-0.17-0.5-0.39-0.65-0.66
		C136.18,22.53,136.1,22.23,136.1,21.91 M136.32,21.91c0,0.28,0.07,0.55,0.21,0.79c0.14,0.24,0.33,0.43,0.58,0.58
		c0.24,0.14,0.51,0.21,0.79,0.21c0.28,0,0.55-0.07,0.79-0.21c0.24-0.14,0.43-0.33,0.58-0.58c0.14-0.24,0.21-0.51,0.21-0.79
		c0-0.28-0.07-0.54-0.21-0.78c-0.14-0.24-0.33-0.44-0.57-0.58c-0.25-0.15-0.51-0.22-0.8-0.22c-0.28,0-0.54,0.07-0.79,0.21
		c-0.24,0.14-0.44,0.33-0.58,0.58C136.39,21.37,136.32,21.63,136.32,21.91 M138.54,21.46c0,0.13-0.03,0.24-0.09,0.34
		s-0.15,0.17-0.26,0.23l0.57,0.94h-0.29l-0.5-0.86h-0.4v0.86h-0.24v-2.11h0.51c0.23,0,0.41,0.05,0.53,0.15
		C138.48,21.1,138.54,21.26,138.54,21.46 M137.56,21.91h0.27c0.14,0,0.26-0.04,0.34-0.11c0.08-0.08,0.12-0.18,0.12-0.33
		c0-0.27-0.16-0.41-0.47-0.41h-0.26V21.91z"/>
	<path class="st0" d="M66.43,23.92c-3.26,0-6.05-1.06-8.29-3.16c-2.36-2.22-3.56-5.17-3.56-8.79c0-3.61,1.2-6.57,3.56-8.79
		c2.24-2.09,5.03-3.16,8.29-3.16c1.76,0,3.23,0.24,4.38,0.7c1.12,0.46,2.03,0.92,2.7,1.36c0.79,0.52,1.19,1.14,1.19,1.82
		c0,0.63-0.19,1.18-0.58,1.64c-0.4,0.48-0.84,0.73-1.29,0.73c-0.56,0-1.14-0.16-1.72-0.49c-1.37-0.77-2.84-1.15-4.35-1.15
		c-2.36,0-4.2,0.67-5.47,2c-1.27,1.33-1.92,3.13-1.92,5.33c0,2.2,0.65,4,1.92,5.33c1.27,1.33,3.11,2,5.47,2
		c1.51,0,2.97-0.39,4.35-1.16c0.59-0.33,1.11-0.49,1.58-0.49c0.54,0,1.01,0.25,1.42,0.73c0.38,0.46,0.58,1.01,0.58,1.64
		c0,0.68-0.4,1.3-1.19,1.82C71.43,23.23,69.04,23.92,66.43,23.92"/>
	<path class="st0" d="M84.13,23.92c-2.07,0-3.82-0.62-5.21-1.85c-1.46-1.3-2.21-3.02-2.21-5.11c0-2.28,0.87-4.1,2.57-5.4
		c1.81-1.38,4.4-2.09,7.7-2.09h4.71c-0.02-1.72-0.44-2.96-1.25-3.67c-0.85-0.74-2.2-1.12-4.01-1.12c-1.59,0-3.46,0.34-5.54,1.02
		l-0.03,0.01c-0.26,0.07-0.56,0.1-0.88,0.1c-0.41,0-0.81-0.2-1.21-0.58c-0.41-0.39-0.61-0.98-0.61-1.74c0-0.58,0.24-1.36,1.39-1.86
		c2.43-1.06,4.99-1.6,7.6-1.6c3.02,0,5.41,0.95,7.08,2.84c1.49,1.64,2.25,3.71,2.25,6.16v12.26c0,0.68-0.24,1.26-0.72,1.72
		c-0.47,0.46-1.04,0.69-1.7,0.69c-0.66,0-1.23-0.24-1.69-0.7c-0.46-0.46-0.69-1.04-0.69-1.72v-0.07c-0.68,0.57-1.49,1.1-2.42,1.61
		C87.91,23.55,86.18,23.92,84.13,23.92 M87.5,13.57c-1.95,0-3.48,0.25-4.55,0.74c-0.98,0.45-1.44,1.15-1.44,2.22
		c0,2.69,2.32,3,4.07,3c1.25,0,2.43-0.31,3.51-0.94c1.04-0.6,1.92-1.28,2.61-2.03v-2.99H87.5z"/>
	<path class="st0" d="M40.72,23.97c-5.67,0-10.29-4.68-10.29-10.44V2.62c0-1.29,1.03-2.34,2.3-2.34c1.27,0,2.3,1.05,2.3,2.34v10.91
		c0,3.18,2.55,5.77,5.68,5.77c3.13,0,5.68-2.59,5.68-5.77V2.62c0-1.29,1.03-2.34,2.3-2.34c1.27,0,2.3,1.05,2.3,2.34v10.91
		C51.01,19.29,46.39,23.97,40.72,23.97"/>
	<path class="st0" d="M101.94,23.7h-0.01c-1.33-0.01-2.4-1.1-2.39-2.45l0.04-9.78c-0.02-0.38-0.06-1.41,0.16-2.7
		c0.36-2.12,1.23-4,2.51-5.43c0.95-1.06,2.13-1.87,3.5-2.43c1.48-0.6,3.21-0.91,5.12-0.9c1.33,0.01,2.39,1.1,2.39,2.45
		c-0.01,1.34-1.08,2.43-2.4,2.43c0,0-0.01,0-0.01,0c-0.02,0-0.04,0-0.06,0c-2.27,0-3.96,0.59-5,1.75c-1.6,1.77-1.43,4.51-1.42,4.53
		l0.01,0.12l-0.05,9.99C104.33,22.62,103.26,23.7,101.94,23.7"/>
	<path class="st0" d="M133.58,13.12c0.44-0.46,0.66-1.04,0.66-1.71c0-3.13-0.91-5.8-2.71-7.93c-1.93-2.29-4.59-3.46-7.9-3.46
		c-3.49,0-6.22,1.26-8.13,3.73c-1.68,2.18-2.53,4.95-2.53,8.21c0,3.78,1.02,6.74,3.03,8.82c2.01,2.07,4.87,3.13,8.48,3.13
		c2,0,4.24-0.41,6.04-1.14c0.39-0.15,1.09-0.48,1.82-0.94c0.39-0.25,0.68-0.53,0.88-0.83c0.21-0.31,0.31-0.64,0.31-0.99
		c0-0.05-0.02-0.5-0.12-0.81c-0.1-0.3-0.29-0.58-0.56-0.83c-0.43-0.4-0.89-0.6-1.38-0.6c-0.45,0-0.93,0.17-1.53,0.44
		c-1.78,0.8-2.91,1.05-5.3,1.08c-2.06,0-3.68-0.54-4.81-1.61c-1.03-0.97-1.69-2.27-1.96-3.87h13.94
		C132.54,13.83,133.14,13.59,133.58,13.12 M117.85,9.69c0.09-0.85,0.3-1.59,0.64-2.22c1.09-2.14,2.77-3.17,5.14-3.17
		c1.47,0,2.75,0.46,3.8,1.36c1.17,1.01,1.83,2.34,2.02,4.03H117.85z"/>
</g>
</svg>
