<?xml version="1.0" encoding="utf-8"?>
<!-- Generator: Adobe Illustrator 24.2.0, SVG Export Plug-In . SVG Version: 6.00 Build 0)  -->
<svg version="1.1" id="Layer_1" xmlns="http://www.w3.org/2000/svg" xmlns:xlink="http://www.w3.org/1999/xlink" x="0px" y="0px"
	 viewBox="0 0 139.7 24" style="enable-background:new 0 0 139.7 24;" xml:space="preserve">
<style type="text/css">
	.st0{clip-path:url(#SVGID_2_);fill:#FFFFFF;}
	.st1{clip-path:url(#SVGID_4_);fill:#FFFFFF;}
	.st2{clip-path:url(#SVGID_6_);fill:#FFFFFF;}
	.st3{clip-path:url(#SVGID_8_);fill:#FFFFFF;}
	.st4{clip-path:url(#SVGID_10_);fill:#FFFFFF;}
	.st5{clip-path:url(#SVGID_12_);fill:#FFFFFF;}
</style>
<g>
	<defs>
		<rect id="SVGID_1_" width="139.7" height="24"/>
	</defs>
	<clipPath id="SVGID_2_">
		<use xlink:href="#SVGID_1_"  style="overflow:visible;"/>
	</clipPath>
	<path class="st0" d="M136.1,21.9c0-0.3,0.1-0.6,0.2-0.9c0.2-0.3,0.4-0.5,0.7-0.7s0.6-0.2,0.9-0.2c0.3,0,0.6,0.1,0.9,0.2
		s0.5,0.4,0.7,0.7s0.2,0.6,0.2,0.9c0,0.3-0.1,0.6-0.2,0.9c-0.1,0.3-0.4,0.5-0.6,0.7s-0.6,0.2-0.9,0.2s-0.6-0.1-0.9-0.2
		s-0.5-0.4-0.6-0.7C136.2,22.5,136.1,22.2,136.1,21.9 M136.3,21.9c0,0.3,0.1,0.5,0.2,0.8c0.1,0.2,0.3,0.4,0.6,0.6
		c0.2,0.1,0.5,0.2,0.8,0.2s0.6-0.1,0.8-0.2c0.2-0.1,0.4-0.3,0.6-0.6c0.1-0.2,0.2-0.5,0.2-0.8s-0.1-0.5-0.2-0.8s-0.3-0.4-0.6-0.6
		c-0.2-0.1-0.5-0.2-0.8-0.2c-0.3,0-0.5,0.1-0.8,0.2c-0.2,0.1-0.4,0.3-0.6,0.6C136.4,21.4,136.3,21.6,136.3,21.9 M138.5,21.5
		c0,0.1,0,0.2-0.1,0.3s-0.1,0.2-0.3,0.2l0.6,0.9h-0.3l-0.5-0.9h-0.4V23h-0.2v-2.1h0.5c0.2,0,0.4,0,0.5,0.1
		C138.5,21.1,138.5,21.3,138.5,21.5 M137.6,21.9h0.3c0.1,0,0.3,0,0.3-0.1c0.1-0.1,0.1-0.2,0.1-0.3c0-0.3-0.2-0.4-0.5-0.4h-0.3V21.9z
		"/>
</g>
<g>
	<defs>
		<rect id="SVGID_3_" width="139.7" height="24"/>
	</defs>
	<clipPath id="SVGID_4_">
		<use xlink:href="#SVGID_3_"  style="overflow:visible;"/>
	</clipPath>
	<path class="st1" d="M66.4,23.9c-3.3,0-6-1.1-8.3-3.2c-2.4-2.2-3.6-5.2-3.6-8.8c0-3.6,1.2-6.6,3.6-8.8c2.2-2.1,5-3.2,8.3-3.2
		c1.8,0,3.2,0.2,4.4,0.7c1.1,0.5,2,0.9,2.7,1.4c0.8,0.5,1.2,1.1,1.2,1.8c0,0.6-0.2,1.2-0.6,1.6c-0.4,0.5-0.8,0.7-1.3,0.7
		c-0.6,0-1.1-0.2-1.7-0.5c-1.4-0.8-2.8-1.2-4.3-1.2c-2.4,0-4.2,0.7-5.5,2s-1.9,3.1-1.9,5.3s0.7,4,1.9,5.3c1.3,1.3,3.1,2,5.5,2
		c1.5,0,3-0.4,4.3-1.2c0.6-0.3,1.1-0.5,1.6-0.5c0.5,0,1,0.2,1.4,0.7c0.4,0.5,0.6,1,0.6,1.6c0,0.7-0.4,1.3-1.2,1.8
		C71.4,23.2,69,23.9,66.4,23.9"/>
</g>
<g>
	<defs>
		<rect id="SVGID_5_" width="139.7" height="24"/>
	</defs>
	<clipPath id="SVGID_6_">
		<use xlink:href="#SVGID_5_"  style="overflow:visible;"/>
	</clipPath>
	<path class="st2" d="M84.1,23.9c-2.1,0-3.8-0.6-5.2-1.9c-1.5-1.3-2.2-3-2.2-5.1c0-2.3,0.9-4.1,2.6-5.4c1.8-1.4,4.4-2.1,7.7-2.1h4.7
		c0-1.7-0.4-3-1.2-3.7c-0.8-0.7-2.2-1.1-4-1.1c-1.6,0-3.5,0.3-5.5,1l0,0c-0.3,0.1-0.6,0.1-0.9,0.1c-0.4,0-0.8-0.2-1.2-0.6
		c-0.4-0.4-0.6-1-0.6-1.7c0-0.6,0.2-1.4,1.4-1.9C82,0.6,84.5,0,87.1,0c3,0,5.4,0.9,7.1,2.8c1.5,1.6,2.2,3.7,2.2,6.2v12.3
		c0,0.7-0.2,1.3-0.7,1.7c-0.5,0.5-1,0.7-1.7,0.7c-0.7,0-1.2-0.2-1.7-0.7c-0.5-0.5-0.7-1-0.7-1.7v-0.1c-0.7,0.6-1.5,1.1-2.4,1.6
		C87.9,23.5,86.2,23.9,84.1,23.9 M87.5,13.6c-1.9,0-3.5,0.2-4.6,0.7c-1,0.4-1.4,1.1-1.4,2.2c0,2.7,2.3,3,4.1,3
		c1.2,0,2.4-0.3,3.5-0.9c1-0.6,1.9-1.3,2.6-2v-3C91.7,13.6,87.5,13.6,87.5,13.6z"/>
</g>
<g>
	<defs>
		<rect id="SVGID_7_" width="139.7" height="24"/>
	</defs>
	<clipPath id="SVGID_8_">
		<use xlink:href="#SVGID_7_"  style="overflow:visible;"/>
	</clipPath>
	<path class="st3" d="M40.7,24c-5.7,0-10.3-4.7-10.3-10.4V2.6c0-1.3,1-2.3,2.3-2.3c1.3,0,2.3,1,2.3,2.3v10.9c0,3.2,2.5,5.8,5.7,5.8
		s5.7-2.6,5.7-5.8V2.6c0-1.3,1-2.3,2.3-2.3s2.3,1,2.3,2.3v10.9C51,19.3,46.4,24,40.7,24"/>
</g>
<g>
	<defs>
		<rect id="SVGID_9_" width="139.7" height="24"/>
	</defs>
	<clipPath id="SVGID_10_">
		<use xlink:href="#SVGID_9_"  style="overflow:visible;"/>
	</clipPath>
	<path class="st4" d="M101.9,23.7L101.9,23.7c-1.3,0-2.4-1.1-2.4-2.5l0-9.8c0-0.4-0.1-1.4,0.2-2.7c0.4-2.1,1.2-4,2.5-5.4
		c0.9-1.1,2.1-1.9,3.5-2.4c1.5-0.6,3.2-0.9,5.1-0.9c1.3,0,2.4,1.1,2.4,2.4c0,1.3-1.1,2.4-2.4,2.4h0c0,0,0,0-0.1,0
		c-2.3,0-4,0.6-5,1.8c-1.6,1.8-1.4,4.5-1.4,4.5l0,0.1l-0.1,10C104.3,22.6,103.3,23.7,101.9,23.7"/>
</g>
<g>
	<defs>
		<rect id="SVGID_11_" width="139.7" height="24"/>
	</defs>
	<clipPath id="SVGID_12_">
		<use xlink:href="#SVGID_11_"  style="overflow:visible;"/>
	</clipPath>
	<path class="st5" d="M133.6,13.1c0.4-0.5,0.7-1,0.7-1.7c0-3.1-0.9-5.8-2.7-7.9c-1.9-2.3-4.6-3.5-7.9-3.5c-3.5,0-6.2,1.3-8.1,3.7
		c-1.7,2.2-2.5,4.9-2.5,8.2c0,3.8,1,6.7,3,8.8c2,2.1,4.9,3.1,8.5,3.1c2,0,4.2-0.4,6-1.1c0.4-0.1,1.1-0.5,1.8-0.9
		c0.4-0.2,0.7-0.5,0.9-0.8c0.2-0.3,0.3-0.6,0.3-1c0,0,0-0.5-0.1-0.8c-0.1-0.3-0.3-0.6-0.6-0.8c-0.4-0.4-0.9-0.6-1.4-0.6
		c-0.4,0-0.9,0.2-1.5,0.4c-1.8,0.8-2.9,1-5.3,1.1c-2.1,0-3.7-0.5-4.8-1.6c-1-1-1.7-2.3-2-3.9h13.9C132.5,13.8,133.1,13.6,133.6,13.1
		 M117.8,9.7c0.1-0.9,0.3-1.6,0.6-2.2c1.1-2.1,2.8-3.2,5.1-3.2c1.5,0,2.8,0.5,3.8,1.4c1.2,1,1.8,2.3,2,4H117.8z"/>
</g>
</svg>
