<?xml version="1.0" encoding="utf-8"?>
<!-- Generator: Adobe Illustrator 22.1.0, SVG Export Plug-In . SVG Version: 6.00 Build 0)  -->
<svg version="1.1" id="Layer_1" xmlns="http://www.w3.org/2000/svg" xmlns:xlink="http://www.w3.org/1999/xlink" x="0px" y="0px"
	 viewBox="0 0 108 108" style="enable-background:new 0 0 108 108;" xml:space="preserve">
<metadata><?xpacket begin="﻿" id="W5M0MpCehiHzreSzNTczkc9d"?>
<x:xmpmeta xmlns:x="adobe:ns:meta/" x:xmptk="Adobe XMP Core 5.6-c143 79.161356, 2017/09/07-01:11:22        ">
   <rdf:RDF xmlns:rdf="http://www.w3.org/1999/02/22-rdf-syntax-ns#">
      <rdf:Description rdf:about=""/>
   </rdf:RDF>
</x:xmpmeta>
                                                                                                    
                                                                                                    
                                                                                                    
                                                                                                    
                                                                                                    
                                                                                                    
                                                                                                    
                                                                                                    
                                                                                                    
                                                                                                    
                                                                                                    
                                                                                                    
                                                                                                    
                                                                                                    
                                                                                                    
                                                                                                    
                                                                                                    
                                                                                                    
                                                                                                    
                                                                                                    
                           
<?xpacket end="w"?></metadata>
<style type="text/css">
	.st0{fill:#FFFFFF;}
</style>
<g>
	<g>
		<path class="st0" d="M94.1,44h-5.3c0.5-2.3,0.7-4.7,0.7-7.2C89.5,17.3,73.6,1.3,54,1.3c-19.6,0-35.5,15.9-35.5,35.5
			c0,2.4,0.2,4.8,0.7,7.2h-5.3c-2.6,0-4.8,2.1-4.8,4.8v40.7c0,2.1,1.4,3.9,3.4,4.6l40.1,12.4c0.9,0.3,1.9,0.3,2.8,0L95.5,94
			c2-0.6,3.4-2.5,3.4-4.6V48.8C98.9,46.1,96.7,44,94.1,44z M54,6.6c16.7,0,30.3,13.6,30.3,30.2c0,2.5-0.3,4.9-0.9,7.2H64.3
			c-1.4-4.7-5.8-7.2-9.7-8c0,0-0.1,0-0.1-0.1c-2.6-0.5-6-2.2-6.7-5.3c-0.3-1.3-0.2-2.6,0.5-3.7c0.8-1.5,2.5-2.6,4.4-2.8
			c2.9-0.3,5.9,1.2,7.1,3.6c0.5,1.1,1.8,1.5,2.8,1c1-0.5,1.5-1.8,1-2.8c-1.4-2.8-4.2-4.9-7.3-5.6v-3.8c0-1.2-0.9-2.1-2.1-2.1
			c-1.2,0-2.1,0.9-2.1,2.1V20c-3.2,0.5-6,2.3-7.4,4.9c-1.1,2-1.4,4.5-0.9,6.8c1.2,4.9,5.8,7.5,9.8,8.4c0,0,0.1,0,0.1,0
			c2.2,0.4,4.9,1.7,6.2,3.9H24.6c-0.6-2.3-0.9-4.7-0.9-7.2C23.8,20.2,37.3,6.6,54,6.6z M93.7,89.2L54,101.5L14.3,89.2V49.1h79.5
			V89.2z"/>
	</g>
</g>
</svg>
