<?xml version="1.0" encoding="utf-8"?>
<!-- Generator: Adobe Illustrator 24.2.0, SVG Export Plug-In . SVG Version: 6.00 Build 0)  -->
<svg version="1.1" id="Layer_1" xmlns="http://www.w3.org/2000/svg" xmlns:xlink="http://www.w3.org/1999/xlink" x="0px" y="0px"
	 viewBox="0 0 165 164" style="enable-background:new 0 0 165 164;" xml:space="preserve">
<style type="text/css">
	.st0{clip-path:url(#SVGID_2_);fill:#f1c04a;}
</style>
<g>
	<defs>
		<rect id="SVGID_1_" width="165" height="164"/>
	</defs>
	<clipPath id="SVGID_2_">
		<use xlink:href="#SVGID_1_"  style="overflow:visible;"/>
	</clipPath>
	<path class="st0" d="M125.35,72.82c-8.61,0-17.22-3.26-23.78-9.77c-13.11-13.03-13.11-34.24,0-47.27l13.14-13.06
		c3.65-3.63,9.57-3.63,13.22,0c3.65,3.63,3.65,9.51,0,13.14l-13.14,13.06c-5.82,5.79-5.82,15.2,0,20.99
		c5.82,5.78,15.29,5.78,21.12,0l13.14-13.06c3.65-3.63,9.57-3.63,13.22,0c3.65,3.63,3.65,9.51,0,13.14l-13.14,13.06
		C142.57,69.56,133.96,72.82,125.35,72.82"/>
	<path class="st0" d="M43.68,164c-2.39,0-4.78-0.91-6.61-2.72c-3.65-3.63-3.65-9.51,0-13.14l13.14-13.06
		c5.82-5.79,5.82-15.2,0-20.99c-5.82-5.79-15.29-5.79-21.11,0l-13.14,13.06c-3.65,3.63-9.57,3.63-13.22,0
		c-3.65-3.63-3.65-9.51,0-13.14l13.14-13.06c13.11-13.03,34.44-13.03,47.56,0s13.11,34.24,0,47.27l-13.14,13.06
		C48.47,163.09,46.07,164,43.68,164"/>
	<path class="st0" d="M39.65,72.82c-8.61,0-17.22-3.26-23.78-9.77L2.74,49.99c-3.65-3.63-3.65-9.51,0-13.14
		c3.65-3.63,9.57-3.63,13.22,0L29.1,49.91c5.82,5.79,15.29,5.78,21.12,0c5.82-5.79,5.82-15.2,0-20.99L37.07,15.86
		c-3.65-3.63-3.65-9.51,0-13.14c3.65-3.63,9.57-3.63,13.22,0l13.14,13.06c13.11,13.03,13.11,34.23,0,47.27
		C56.88,69.56,48.27,72.82,39.65,72.82"/>
	<path class="st0" d="M121.32,164c-2.39,0-4.78-0.91-6.61-2.72l-13.14-13.06c-13.11-13.03-13.11-34.24,0-47.27
		c13.11-13.03,34.44-13.03,47.55,0l13.14,13.06c3.65,3.63,3.65,9.51,0,13.14c-3.65,3.63-9.57,3.63-13.22,0l-13.14-13.06
		c-5.82-5.78-15.29-5.79-21.11,0c-5.82,5.79-5.82,15.2,0,20.99l13.14,13.06c3.65,3.63,3.65,9.51,0,13.14
		C126.1,163.09,123.71,164,121.32,164"/>
</g>
</svg>
