<?xml version="1.0" encoding="utf-8"?>
<!-- Generator: Adobe Illustrator 22.1.0, SVG Export Plug-In . SVG Version: 6.00 Build 0)  -->
<svg version="1.1" id="Layer_1" xmlns="http://www.w3.org/2000/svg" xmlns:xlink="http://www.w3.org/1999/xlink" x="0px" y="0px"
	 viewBox="0 0 108 108" style="enable-background:new 0 0 108 108;" xml:space="preserve">
<metadata><?xpacket begin="﻿" id="W5M0MpCehiHzreSzNTczkc9d"?>
<x:xmpmeta xmlns:x="adobe:ns:meta/" x:xmptk="Adobe XMP Core 5.6-c143 79.161356, 2017/09/07-01:11:22        ">
   <rdf:RDF xmlns:rdf="http://www.w3.org/1999/02/22-rdf-syntax-ns#">
      <rdf:Description rdf:about=""/>
   </rdf:RDF>
</x:xmpmeta>
                                                                                                    
                                                                                                    
                                                                                                    
                                                                                                    
                                                                                                    
                                                                                                    
                                                                                                    
                                                                                                    
                                                                                                    
                                                                                                    
                                                                                                    
                                                                                                    
                                                                                                    
                                                                                                    
                                                                                                    
                                                                                                    
                                                                                                    
                                                                                                    
                                                                                                    
                                                                                                    
                           
<?xpacket end="w"?></metadata>
<style type="text/css">
	.st0{fill:#FFFFFF;}
</style>
<g>
	<g>
		<path class="st0" d="M54.3,76.7c-8.1,0-14.6,6.5-14.6,14.6c0,1.4,0.2,2.8,0.6,4.2c0.4,1.2,1.7,2,2.9,1.6c1.2-0.4,1.9-1.7,1.6-2.9
			c-0.3-0.9-0.4-1.9-0.4-2.8c0-5.5,4.5-9.9,9.9-9.9s9.9,4.5,9.9,9.9c0,5.5-4.5,9.9-9.9,9.9c-2.2,0-3-0.5-3.4-0.8
			c-1.1-0.7-2.5-0.3-3.2,0.8c-0.7,1.1-0.3,2.5,0.8,3.2c1.2,0.7,2.8,1.4,5.8,1.4c8,0,14.6-6.5,14.6-14.6
			C68.9,83.3,62.4,76.7,54.3,76.7z"/>
	</g>
	<g>
		<path class="st0" d="M57.4,91.1c0-1.8-1.4-3.2-3.2-3.2c-1.8,0-3.2,1.4-3.2,3.2s1.4,3.2,3.2,3.2C56,94.3,57.4,92.8,57.4,91.1z"/>
	</g>
	<g>
		<path class="st0" d="M82.8,18c-0.6-7.7-4.4-10.6-7.7-12.3c-1.4-0.7-4-1.2-6.5-1.5c-0.7-1.3-2-2.2-3.6-2.2c-1.7,0-3.1,1-3.7,2.4
			c-0.3,0.4-0.6,0.8-0.6,1.4c0,0.5,0.1,1,0.4,1.4c0.5,1.7,2.1,3,3.9,3c1.2,0,2.3-0.5,3.1-1.4c2.3,0.3,4.3,0.7,5,1
			c2.3,1.1,4.7,2.8,5.1,8.4c1.1,15.9-8.1,25.3-9.9,27l-0.4,0.4c-3.3,3.1-7.4,6.9-13.8,6.9c-6.4,0-10.5-3.8-13.8-6.9l-0.4-0.4
			c-1.9-1.7-11.1-11.1-9.9-27c0.4-5.6,2.8-7.3,5.1-8.4c0.8-0.4,2.9-0.8,5.4-1.1c0.8,0.9,1.9,1.4,3.1,1.4c2.3,0,4.1-1.8,4.1-4.1
			c0-2.3-1.8-4.1-4.1-4.1c-1.5,0-2.9,0.9-3.6,2.1c-2.6,0.3-5.5,0.8-7,1.6c-3.3,1.6-7.1,4.5-7.7,12.3c-1.3,18,9.3,28.8,11.4,30.8
			l0.4,0.4c3.2,2.9,7.8,7.2,14.7,8V69c0,1.3,1,2.3,2.3,2.3c1.3,0,2.3-1,2.3-2.3V57.2c6.8-0.8,11.4-5.1,14.6-8l0.4-0.4
			C73.5,46.8,84.1,36.1,82.8,18z"/>
	</g>
</g>
</svg>
