<?xml version="1.0" encoding="utf-8"?>
<!-- Generator: Adobe Illustrator 22.1.0, SVG Export Plug-In . SVG Version: 6.00 Build 0)  -->
<svg version="1.1" id="Layer_1" xmlns="http://www.w3.org/2000/svg" xmlns:xlink="http://www.w3.org/1999/xlink" x="0px" y="0px"
	 viewBox="0 0 108 108" style="enable-background:new 0 0 108 108;" xml:space="preserve">
<metadata><?xpacket begin="﻿" id="W5M0MpCehiHzreSzNTczkc9d"?>
<x:xmpmeta xmlns:x="adobe:ns:meta/" x:xmptk="Adobe XMP Core 5.6-c143 79.161356, 2017/09/07-01:11:22        ">
   <rdf:RDF xmlns:rdf="http://www.w3.org/1999/02/22-rdf-syntax-ns#">
      <rdf:Description rdf:about=""/>
   </rdf:RDF>
</x:xmpmeta>
                                                                                                    
                                                                                                    
                                                                                                    
                                                                                                    
                                                                                                    
                                                                                                    
                                                                                                    
                                                                                                    
                                                                                                    
                                                                                                    
                                                                                                    
                                                                                                    
                                                                                                    
                                                                                                    
                                                                                                    
                                                                                                    
                                                                                                    
                                                                                                    
                                                                                                    
                                                                                                    
                           
<?xpacket end="w"?></metadata>
<style type="text/css">
	.st0{fill:#FFFFFF;}
</style>
<g>
	<g>
		<g>
			<path class="st0" d="M54,105.7c-2.5,0-4.9-1.1-6.5-3C38.9,92.4,19,65.3,19,37.4c0-0.6,0.1-15.7,10.2-25.8
				C35.3,5.4,43.7,2.3,54,2.3c10.4,0,18.7,3.1,24.8,9.3C88.9,21.8,89,36.8,89,37.4c0,27.9-19.9,54.9-28.5,65.3
				C58.9,104.6,56.5,105.7,54,105.7z M54,6.8c-9.1,0-16.3,2.7-21.6,7.9c-8.8,8.9-8.9,22.1-8.9,22.6c0,26.5,19.2,52.4,27.5,62.4
				c1.5,1.8,4.5,1.8,6,0c8.3-9.9,27.5-35.9,27.5-62.4v0c0-0.6-0.1-13.8-8.9-22.6C70.4,9.5,63.1,6.8,54,6.8z"/>
		</g>
	</g>
	<g>
		<g>
			<path class="st0" d="M54,54.7c-9.7,0-17.6-7.9-17.6-17.6S44.3,19.5,54,19.5s17.6,7.9,17.6,17.6S63.7,54.7,54,54.7z M54,24
				c-7.2,0-13.1,5.9-13.1,13.1S46.8,50.2,54,50.2s13.1-5.9,13.1-13.1S61.2,24,54,24z"/>
		</g>
	</g>
</g>
</svg>
